<svg viewBox="0 0 20.00 20.00" xmlns="http://www.w3.org/2000/svg" fill="none" stroke="#000000" stroke-width="0.24"><g id="SVGRepo_bgCarrier" stroke-width="0"></g><g id="SVGRepo_tracerCarrier" stroke-linecap="round" stroke-linejoin="round" stroke="#CCCCCC" stroke-width="0.04"></g><g id="SVGRepo_iconCarrier"> <path fill="#7becf4" fill-rule="evenodd" d="M4 1a2 2 0 00-2 2v14a2 2 0 002 2h12a2 2 0 002-2V7.414A2 2 0 0017.414 6L13 1.586A2 2 0 0011.586 1H4zm0 2h7.586L16 7.414V17H4V3zm2 2a1 1 0 000 2h5a1 1 0 100-2H6zm-1 5a1 1 0 011-1h8a1 1 0 110 2H6a1 1 0 01-1-1zm1 3a1 1 0 100 2h8a1 1 0 100-2H6z"></path> </g></svg>